<?xml version="1.0" standalone="no"?>
<!DOCTYPE svg PUBLIC "-//W3C//DTD SVG 20010904//EN"
 "http://www.w3.org/TR/2001/REC-SVG-20010904/DTD/svg10.dtd">
<svg version="1.0" xmlns="http://www.w3.org/2000/svg"
 width="292.000000pt" height="292.000000pt" viewBox="0 0 292.000000 292.000000"
 preserveAspectRatio="xMidYMid meet">
<metadata>
Created by potrace 1.11, written by Peter Selinger 2001-2013
</metadata>
<g transform="translate(0.000000,292.000000) scale(0.100000,-0.100000)"
fill="#000000" stroke="none">
<path d="M1413 2176 c-22 -46 -29 -53 -44 -45 -10 5 -43 9 -75 9 -45 0 -75 -8
-148 -41 -64 -29 -110 -43 -153 -47 l-63 -5 0 -36 c0 -20 -38 -144 -84 -276
-109 -311 -101 -293 -128 -297 -56 -8 -5 -122 80 -180 81 -56 182 -72 275 -44
97 29 187 123 187 194 0 26 -4 32 -22 32 -21 0 -31 23 -107 241 -46 132 -84
247 -85 256 -1 10 18 21 54 33 30 9 80 29 110 44 89 42 140 35 140 -21 0 -48
45 -93 94 -93 51 0 88 35 95 91 6 42 7 44 44 47 27 2 61 -8 126 -37 48 -23 97
-41 108 -41 11 0 22 -3 26 -6 5 -5 -71 -238 -141 -429 -24 -63 -35 -81 -53
-86 -53 -12 -9 -120 73 -179 118 -86 282 -79 387 16 59 53 81 90 81 134 0 24
-4 30 -23 30 -18 0 -26 11 -46 68 -12 37 -54 155 -92 263 -41 117 -69 212 -69
236 l0 40 -69 6 c-53 4 -86 15 -142 44 -69 35 -81 38 -163 39 l-89 1 -24 46
c-13 26 -26 47 -28 47 -3 0 -17 -24 -32 -54z m-354 -518 c39 -113 71 -209 71
-212 0 -3 -67 -6 -150 -6 -82 0 -150 3 -150 7 0 21 146 431 152 425 3 -4 38
-100 77 -214z m930 -1 c39 -115 71 -211 71 -213 0 -2 -70 -4 -155 -4 l-154 0
34 93 c19 50 53 149 77 219 23 70 45 124 49 120 4 -4 39 -101 78 -215z"/>
<path d="M542 858 c-8 -8 -12 -66 -12 -194 0 -153 2 -184 16 -195 27 -23 49 1
52 60 l3 51 65 0 c51 0 66 4 71 16 12 33 -11 49 -76 52 l-61 3 0 74 0 74 81 3
c63 2 84 7 92 20 8 12 7 21 -2 32 -11 13 -35 16 -115 16 -66 0 -106 -4 -114
-12z"/>
<path d="M1636 854 c-13 -13 -16 -45 -16 -189 0 -210 -3 -205 108 -205 88 0
105 7 100 41 -3 22 -9 24 -68 29 l-65 5 -3 154 c-3 175 -14 207 -56 165z"/>
<path d="M1882 858 c-8 -8 -12 -66 -12 -195 0 -215 -8 -203 127 -203 100 0
130 12 119 48 -7 20 -14 22 -92 22 -83 0 -84 0 -84 25 0 23 3 24 68 27 62 3
67 5 70 27 5 32 -12 41 -80 41 l-58 0 0 75 0 74 81 3 c63 2 84 7 92 20 8 12 7
21 -2 32 -11 13 -35 16 -115 16 -66 0 -106 -4 -114 -12z"/>
<path d="M2151 852 c-7 -12 3 -46 35 -127 l44 -110 -22 -62 c-21 -58 -21 -64
-7 -79 13 -13 21 -14 38 -5 11 7 21 19 21 28 0 12 7 9 25 -11 27 -29 42 -30
58 -4 8 11 4 32 -13 73 l-23 57 45 111 c25 61 44 117 41 124 -6 14 -39 27 -52
19 -4 -3 -21 -37 -37 -76 -16 -38 -32 -70 -35 -70 -4 0 -17 27 -29 61 -32 86
-66 113 -89 71z"/>
<path d="M833 726 c-35 -32 -37 -38 -41 -102 -4 -82 15 -121 73 -148 47 -23
95 -15 137 23 50 45 15 94 -38 52 -15 -12 -34 -21 -43 -21 -20 0 -61 27 -61
40 0 5 37 10 83 12 l82 3 3 40 c7 75 -48 135 -122 135 -27 0 -46 -8 -73 -34z
m115 -48 c24 -24 13 -38 -31 -38 -51 0 -60 6 -46 31 11 22 58 26 77 7z"/>
<path d="M1067 753 c-4 -3 -7 -15 -7 -25 0 -26 89 -245 105 -258 27 -23 50 8
99 135 47 118 48 127 33 143 -27 26 -46 6 -81 -83 l-30 -78 -21 45 c-12 25
-28 64 -37 87 -16 39 -42 54 -61 34z"/>
<path d="M1389 737 c-79 -53 -77 -192 4 -251 72 -53 229 18 163 73 -12 10 -23
8 -54 -10 -34 -20 -44 -21 -66 -11 -14 6 -26 18 -26 27 0 12 14 15 74 15 87 0
102 11 91 67 -10 52 -21 71 -58 93 -42 26 -86 25 -128 -3z m99 -59 c24 -24 13
-38 -31 -38 -53 0 -62 8 -40 32 18 21 53 24 71 6z"/>
<path d="M1485 431 c-12 -12 -6 -111 6 -111 5 0 9 20 9 44 0 24 3 51 6 60 7
18 -7 21 -21 7z"/>
<path d="M406 369 c-17 -41 -14 -67 4 -39 8 12 13 13 30 3 30 -19 31 -17 12
32 -9 25 -19 45 -23 45 -4 0 -14 -19 -23 -41z"/>
<path d="M475 399 c-4 -6 -4 -26 -1 -45 6 -27 12 -34 29 -34 13 0 28 5 35 12
9 9 12 9 12 -1 0 -8 10 -11 28 -9 23 3 27 8 30 41 4 43 -17 58 -51 38 -14 -9
-22 -10 -30 -2 -14 14 -44 14 -52 0z m43 -20 c-2 -6 -8 -10 -13 -10 -5 0 -11
4 -13 10 -2 6 4 11 13 11 9 0 15 -5 13 -11z m79 -9 c4 -21 -13 -44 -26 -36 -6
4 -11 18 -11 32 0 19 5 25 17 22 10 -2 19 -10 20 -18z"/>
<path d="M632 398 c-16 -16 -15 -53 2 -67 16 -13 68 -11 78 4 5 7 14 6 28 -2
29 -19 30 -17 13 32 -8 25 -19 45 -23 45 -5 0 -14 -16 -20 -35 -10 -31 -14
-34 -28 -23 -12 10 -16 10 -19 1 -8 -22 -23 -14 -23 12 0 18 5 25 20 25 11 0
20 5 20 10 0 14 -33 13 -48 -2z"/>
<path d="M780 365 c0 -37 3 -45 19 -45 10 0 24 7 31 15 11 14 14 13 24 -1 16
-22 49 -14 56 13 5 21 5 21 28 3 20 -17 21 -19 5 -23 -11 -3 -8 -5 10 -6 20
-1 27 4 27 18 0 10 -9 21 -20 24 -27 7 -25 23 3 32 19 6 20 8 4 12 -10 3 -27
-3 -37 -12 -16 -14 -18 -14 -23 0 -8 20 -44 19 -55 -1 -8 -14 -10 -14 -21 0
-8 9 -22 16 -32 16 -16 0 -19 -8 -19 -45z m40 0 c0 -14 -6 -25 -12 -25 -7 0
-13 11 -13 25 0 14 6 25 13 25 6 0 12 -11 12 -25z m80 1 c0 -31 -16 -42 -28
-19 -12 22 -5 43 14 43 8 0 14 -10 14 -24z"/>
<path d="M1058 384 c-14 -31 -1 -57 31 -62 16 -3 21 2 21 17 0 12 -4 21 -10
21 -5 0 -10 -4 -10 -10 0 -5 -4 -10 -10 -10 -19 0 -10 42 10 47 26 7 26 23 0
23 -12 0 -25 -10 -32 -26z"/>
<path d="M1130 365 c0 -44 1 -45 33 -44 30 1 31 1 7 9 -17 5 -19 8 -7 9 21 1
23 21 2 21 -8 0 -15 7 -15 15 0 8 6 15 14 15 8 0 18 5 21 10 4 6 -7 10 -24 10
-30 0 -31 -1 -31 -45z"/>
<path d="M1207 403 c-14 -13 -7 -51 11 -58 16 -7 15 -8 -3 -16 -17 -7 -15 -8
9 -6 39 3 44 24 9 38 l-28 10 25 19 c24 19 24 20 4 20 -11 0 -24 -3 -27 -7z"/>
<path d="M1268 398 c7 -7 12 -27 12 -45 0 -18 5 -33 10 -33 6 0 10 16 10 35 0
19 5 35 10 35 6 0 10 5 10 10 0 6 -14 10 -32 10 -25 0 -29 -3 -20 -12z"/>
<path d="M1334 397 c-3 -9 -4 -28 -2 -44 2 -22 9 -29 30 -31 23 -3 29 2 34 24
4 15 2 34 -3 43 -13 21 -52 26 -59 8z m46 -31 c0 -31 -14 -40 -30 -21 -15 18
-6 45 15 45 9 0 15 -9 15 -24z"/>
<path d="M1410 364 c0 -39 2 -45 14 -35 11 9 15 9 19 -1 7 -22 17 -3 20 38 2
36 0 39 -25 42 -27 3 -28 2 -28 -44z m40 11 c0 -8 -4 -15 -9 -15 -5 0 -11 7
-15 15 -3 9 0 15 9 15 8 0 15 -7 15 -15z"/>
<path d="M1527 368 c-9 -23 -14 -44 -11 -47 4 -3 9 0 11 7 5 14 43 16 43 2 0
-5 4 -10 9 -10 6 0 3 20 -6 45 -8 25 -18 45 -22 45 -5 0 -15 -19 -24 -42z"/>
<path d="M1642 371 c-16 -51 -15 -53 8 -39 17 11 22 10 30 -2 5 -8 12 -12 15
-8 7 7 -24 88 -35 88 -4 0 -12 -17 -18 -39z"/>
<path d="M1710 365 c0 -37 3 -45 18 -45 24 0 42 19 42 45 0 26 -18 45 -42 45
-15 0 -18 -8 -18 -45z m42 13 c6 -17 -1 -38 -13 -38 -5 0 -9 11 -9 25 0 26 14
34 22 13z"/>
<path d="M1780 365 c0 -25 5 -45 10 -45 6 0 10 6 10 13 0 8 7 14 15 14 8 0 15
-6 15 -14 0 -7 5 -13 10 -13 6 0 10 20 10 45 0 46 -12 59 -25 28 -6 -17 -7
-17 -19 0 -20 27 -26 21 -26 -28z"/>
<path d="M1860 365 c0 -28 4 -44 10 -40 6 3 10 21 10 40 0 19 -4 37 -10 40 -6
4 -10 -12 -10 -40z"/>
<path d="M1890 365 c0 -25 5 -45 10 -45 6 0 10 9 10 21 0 21 0 21 20 -2 l19
-24 0 50 c-1 37 -3 44 -8 25 l-7 -25 -15 23 c-21 33 -29 27 -29 -23z"/>
<path d="M1970 365 c0 -25 5 -45 10 -45 6 0 10 20 10 45 0 25 -4 45 -10 45 -5
0 -10 -20 -10 -45z"/>
<path d="M2005 389 c-4 -13 -1 -27 10 -39 15 -17 15 -19 -2 -23 -10 -3 -4 -5
15 -6 23 -1 32 3 32 15 0 9 -9 18 -20 21 -23 6 -27 33 -6 33 8 0 18 5 21 10 3
6 -5 10 -19 10 -16 0 -27 -7 -31 -21z"/>
<path d="M2078 398 c7 -7 12 -27 12 -46 0 -19 4 -31 10 -27 6 3 10 19 10 34 0
15 5 32 12 39 9 9 4 12 -22 12 -26 0 -31 -3 -22 -12z"/>
<path d="M2140 363 c0 -37 3 -44 11 -33 8 11 12 12 16 3 2 -7 9 -13 14 -13 6
0 9 6 8 13 -1 6 1 20 5 30 12 26 -1 47 -29 47 -23 0 -25 -3 -25 -47z m40 12
c0 -8 -7 -15 -15 -15 -8 0 -15 7 -15 15 0 8 7 15 15 15 8 0 15 -7 15 -15z"/>
<path d="M2222 372 c-16 -52 -15 -54 8 -40 17 11 22 10 30 -2 16 -26 20 -4 7
35 -18 52 -31 54 -45 7z"/>
<path d="M2298 398 c7 -7 12 -27 12 -45 0 -18 5 -33 10 -33 6 0 10 15 10 33 0
18 5 38 12 45 9 9 4 12 -22 12 -26 0 -31 -3 -22 -12z"/>
<path d="M2363 365 c0 -27 2 -38 4 -22 2 15 2 37 0 50 -2 12 -4 0 -4 -28z"/>
<path d="M2390 397 c0 -23 21 -77 30 -77 11 0 33 67 26 83 -3 7 -7 3 -11 -10
-8 -26 -25 -31 -25 -9 0 8 -4 18 -10 21 -5 3 -10 0 -10 -8z"/>
<path d="M2475 377 c-21 -50 -19 -60 5 -45 17 11 22 10 30 -2 16 -25 23 -2 10
32 -21 52 -28 54 -45 15z"/>
<path d="M990 330 c0 -5 5 -10 10 -10 6 0 10 5 10 10 0 6 -4 10 -10 10 -5 0
-10 -4 -10 -10z"/>
</g>
</svg>
